<svg xmlns="http://www.w3.org/2000/svg" viewBox="0 0 512 512">
  <defs>
    <linearGradient id="bg" x1="0%" y1="0%" x2="100%" y2="100%">
      <stop offset="0%" stop-color="#142544" />
      <stop offset="100%" stop-color="#2d5b8a" />
    </linearGradient>
    <linearGradient id="accent" x1="0%" y1="0%" x2="100%" y2="100%">
      <stop offset="0%" stop-color="#f1a445" />
      <stop offset="100%" stop-color="#d45a46" />
    </linearGradient>
  </defs>
  <rect width="512" height="512" fill="url(#bg)" />
  <circle cx="256" cy="256" r="210" fill="rgba(255,247,234,0.08)" />
  <rect x="112" y="126" width="288" height="260" rx="38" fill="#fff7ea" />
  <rect x="146" y="168" width="220" height="28" rx="14" fill="#dce7f4" />
  <rect x="146" y="220" width="112" height="24" rx="12" fill="#1a8e6c" opacity="0.92" />
  <rect x="272" y="220" width="94" height="24" rx="12" fill="#d9e2ee" />
  <rect x="146" y="266" width="154" height="24" rx="12" fill="#d9e2ee" />
  <rect x="314" y="266" width="52" height="24" rx="12" fill="#d9e2ee" />
  <circle cx="344" cy="344" r="68" fill="url(#accent)" />
  <path d="M343 305c7 0 12 5 12 12v24h20c7 0 12 5 12 12s-5 12-12 12h-32c-7 0-12-5-12-12v-36c0-7 5-12 12-12z" fill="#fffaf1" />
  <text x="164" y="430" font-family="Arial, sans-serif" font-size="52" font-weight="700" fill="#fffaf1">IHC</text>
</svg>
