<svg xmlns="http://www.w3.org/2000/svg" viewBox="0 0 512 512">
  <defs>
    <linearGradient id="bg" x1="0%" y1="0%" x2="100%" y2="100%">
      <stop offset="0%" stop-color="#142544" />
      <stop offset="100%" stop-color="#2d5b8a" />
    </linearGradient>
    <linearGradient id="accent" x1="0%" y1="0%" x2="100%" y2="100%">
      <stop offset="0%" stop-color="#f1a445" />
      <stop offset="100%" stop-color="#d45a46" />
    </linearGradient>
  </defs>
  <rect width="512" height="512" rx="112" fill="url(#bg)" />
  <rect x="102" y="118" width="308" height="280" rx="38" fill="#fff7ea" />
  <rect x="138" y="164" width="236" height="30" rx="15" fill="#dce7f4" />
  <rect x="138" y="219" width="118" height="26" rx="13" fill="#1a8e6c" opacity="0.92" />
  <rect x="272" y="219" width="102" height="26" rx="13" fill="#d9e2ee" />
  <rect x="138" y="267" width="164" height="26" rx="13" fill="#d9e2ee" />
  <rect x="316" y="267" width="58" height="26" rx="13" fill="#d9e2ee" />
  <circle cx="352" cy="360" r="72" fill="url(#accent)" />
  <path d="M351 319c7 0 12 5 12 12v25h21c7 0 12 5 12 12s-5 12-12 12h-33c-7 0-12-5-12-12v-37c0-7 5-12 12-12z" fill="#fffaf1" />
  <text x="112" y="438" font-family="Arial, sans-serif" font-size="56" font-weight="700" fill="#fffaf1">IHC</text>
</svg>
